<?xml version="1.0" standalone="no"?>
<svg width="600" height="350" viewBox="0 0 600 350" xmlns="http://www.w3.org/2000/svg" id="generated-svg" style="max-width: 100%; height: auto;"><defs><style>
                .neuron-text { 
                    font-family: 'Inconsolata', monospace; 
                    font-weight: 900; 
                    letter-spacing: 11px;
                    user-select: none;
                }
            </style></defs><g><path d="M 225 155 Q 237.5 167.5 250 175" fill="none" stroke="#3CABDB" stroke-width="4.40" stroke-linecap="round" style="pointer-events: none;"/><path d="M 230 200 Q 240 189.5 250 175" fill="none" stroke="#3CABDB" stroke-width="4.40" stroke-linecap="round" style="pointer-events: none;"/><path d="M 281.5 152 Q 265.75 160.35 250 175" fill="none" stroke="#3CABDB" stroke-width="1.50" stroke-linecap="round" style="pointer-events: none;"/><path d="M 200 135 Q 212.5 147.5 225 155" fill="none" stroke="#3CABDB" stroke-width="3.94" stroke-linecap="round" style="pointer-events: none;"/><path d="M 170 115 Q 185 128 200 135" fill="none" stroke="#3CABDB" stroke-width="2.90" stroke-linecap="round" style="pointer-events: none;"/><path d="M 140 130 Q 155 125.5 170 115" fill="none" stroke="#3CABDB" stroke-width="1.50" stroke-linecap="round" style="pointer-events: none;"/><path d="M 180 85 Q 190 112 200 135" fill="none" stroke="#3CABDB" stroke-width="1.50" stroke-linecap="round" style="pointer-events: none;"/><path d="M 200 220 Q 215 213 230 200" fill="none" stroke="#3CABDB" stroke-width="3.94" stroke-linecap="round" style="pointer-events: none;"/><path d="M 170 235 Q 185 230.5 200 220" fill="none" stroke="#3CABDB" stroke-width="2.90" stroke-linecap="round" style="pointer-events: none;"/><path d="M 145 255 Q 157.5 247.5 170 235" fill="none" stroke="#3CABDB" stroke-width="2.27" stroke-linecap="round" style="pointer-events: none;"/><path d="M 185 260 Q 192.5 241.5 200 220" fill="none" stroke="#3CABDB" stroke-width="1.50" stroke-linecap="round" style="pointer-events: none;"/><path d="M 120 105 Q 145 115 170 115" fill="none" stroke="#3CABDB" stroke-width="1.50" stroke-linecap="round" style="pointer-events: none;"/><path d="M 110 265 Q 127.5 263.5 145 255" fill="none" stroke="#3CABDB" stroke-width="1.50" stroke-linecap="round" style="pointer-events: none;"/><path d="M 310 185 Q 280 174 250 175" fill="none" stroke="#3CABDB" stroke-width="5.61" stroke-linecap="round" style="pointer-events: none;"/><path d="M 350 195 Q 330 186 310 185" fill="none" stroke="#3CABDB" stroke-width="5.22" stroke-linecap="round" style="pointer-events: none;"/><path d="M 400 175 Q 375 180 350 195" fill="none" stroke="#3CABDB" stroke-width="4.82" stroke-linecap="round" style="pointer-events: none;"/><path d="M 430 145 Q 415 157 400 175" fill="none" stroke="#3CABDB" stroke-width="2.90" stroke-linecap="round" style="pointer-events: none;"/><path d="M 460 125 Q 445 132 430 145" fill="none" stroke="#3CABDB" stroke-width="1.50" stroke-linecap="round" style="pointer-events: none;"/><path d="M 480 150 Q 455 142.5 430 145" fill="none" stroke="#3CABDB" stroke-width="1.50" stroke-linecap="round" style="pointer-events: none;"/><path d="M 440 205 Q 420 186 400 175" fill="none" stroke="#3CABDB" stroke-width="2.90" stroke-linecap="round" style="pointer-events: none;"/><path d="M 470 215 Q 455 207 440 205" fill="none" stroke="#3CABDB" stroke-width="1.50" stroke-linecap="round" style="pointer-events: none;"/><path d="M 490 195 Q 465 195 440 205" fill="none" stroke="#3CABDB" stroke-width="1.50" stroke-linecap="round" style="pointer-events: none;"/></g><g><circle cx="250" cy="175" r="15.71" fill="#3CABDB" class="draggable" data-id="c1"/><circle cx="225" cy="155" r="7.50" fill="#3CABDB" class="draggable" data-id="c2"/><circle cx="230" cy="200" r="7.50" fill="#3CABDB" class="draggable" data-id="c3"/><circle cx="281.5" cy="152" r="2.80" fill="#3CABDB" class="draggable selected-node" data-id="c4"/><circle cx="200" cy="135" r="6.79" fill="#3CABDB" class="draggable" data-id="d1"/><circle cx="170" cy="115" r="5.12" fill="#3CABDB" class="draggable" data-id="d2"/><circle cx="140" cy="130" r="2.80" fill="#3CABDB" class="draggable" data-id="d3"/><circle cx="180" cy="85" r="2.80" fill="#3CABDB" class="draggable" data-id="d4"/><circle cx="200" cy="220" r="6.79" fill="#3CABDB" class="draggable" data-id="d5"/><circle cx="170" cy="235" r="5.12" fill="#3CABDB" class="draggable" data-id="d6"/><circle cx="145" cy="255" r="4.10" fill="#3CABDB" class="draggable" data-id="d7"/><circle cx="185" cy="260" r="2.80" fill="#3CABDB" class="draggable" data-id="d8"/><circle cx="120" cy="105" r="2.80" fill="#3CABDB" class="draggable" data-id="d9"/><circle cx="110" cy="265" r="2.80" fill="#3CABDB" class="draggable" data-id="d10"/><circle cx="310" cy="185" r="9.38" fill="#3CABDB" class="draggable" data-id="a1"/><circle cx="350" cy="195" r="8.79" fill="#3CABDB" class="draggable" data-id="a2"/><circle cx="400" cy="175" r="8.17" fill="#3CABDB" class="draggable" data-id="a3"/><circle cx="430" cy="145" r="5.12" fill="#3CABDB" class="draggable" data-id="t1"/><circle cx="460" cy="125" r="2.80" fill="#3CABDB" class="draggable" data-id="t2"/><circle cx="480" cy="150" r="2.80" fill="#3CABDB" class="draggable" data-id="t3"/><circle cx="440" cy="205" r="5.12" fill="#3CABDB" class="draggable" data-id="t4"/><circle cx="470" cy="215" r="2.80" fill="#3CABDB" class="draggable" data-id="t5"/><circle cx="490" cy="195" r="2.80" fill="#3CABDB" class="draggable" data-id="t6"/></g><text x="367" y="243" fill="#3CABDB" class="neuron-text draggable" font-size="71" text-anchor="middle" dominant-baseline="middle" data-id="TEXT_LABEL">Neuron</text></svg>